# xmcd
#
# Track frame offsets:
#	150
#	17986
#	37984
#	54595
#	72473
#	90122
#	104042
#	128282
#	144093
#	159465
#	177033
#	193616
#	206674
#	226937
#
# Disc length: 3215 seconds
# Revision: 0
# Processed by: cddbd v1.5.2PL0 Copyright (c) Steve Scherf et al.
# Submitted via: dBpowerAMP V12.0
#
DISCID=b00c8d0e
DTITLE=Various Artist - Fingerprints
DYEAR=2019
DGENRE=Singer/Songwriter
TTITLE0=Rod McCormack - Shimmers
TTITLE1=Rod McCormack - Another Tinsel Town
TTITLE2=Rod McCormack - Covering Your Tracks
TTITLE3=Rod McCormack feat. Gina Jeffreys - Fingerprints
TTITLE4=Rod McCormack feat. Claire Lynch - It Was Love
TTITLE5=Rod McCormack - Timeless Traveler
TTITLE6=Rod McCormack - Ballad Of Willie Johnson
TTITLE7=Rod McCormack - Another Nail
TTITLE8=Rod McCormack - It Takes Years
TTITLE9=Rod McCormack - Double Rainbow
TTITLE10=Rod McCormack - Winter Worn
TTITLE11=Rod McCormack - I'm Still Here
TTITLE12=Rod McCormack feat. Claire Lynch - Wherever You Go
TTITLE13=Rod McCormack - Sweetwater
EXTD=
EXTT0=
EXTT1=
EXTT2=
EXTT3=
EXTT4=
EXTT5=
EXTT6=
EXTT7=
EXTT8=
EXTT9=
EXTT10=
EXTT11=
EXTT12=
EXTT13=
PLAYORDER=
